<?xml version="1.0" encoding="utf-8"?>
<!-- Generator: Adobe Illustrator 22.1.0, SVG Export Plug-In . SVG Version: 6.00 Build 0)  -->
<svg version="1.1"
	 id="Layer_1" xmlns:cc="http://creativecommons.org/ns#" xmlns:dc="http://purl.org/dc/elements/1.1/" xmlns:rdf="http://www.w3.org/1999/02/22-rdf-syntax-ns#"
	 xmlns="http://www.w3.org/2000/svg" xmlns:xlink="http://www.w3.org/1999/xlink" x="0px" y="0px" viewBox="0 0 24 24"
	 style="enable-background:new 0 0 24 24;" xml:space="preserve">
<style type="text/css">
	.st0{fill:#2980B9;}
	.st1{fill:#3498DB;}
</style>
<g transform="translate(0 -1028.4)">
	<path class="st0" d="M2,1033.4c-1.1,0-2,0.9-2,2v14c0,1.1,0.9,2,2,2h20c1.1,0,2-0.9,2-2v-14c0-1.1-0.9-2-2-2H2z"/>
	<path class="st0" d="M3,1029.4c-1.1,0-2,0.9-2,2v14c0,1.1,0.9,2,2,2h11h5h2c1.1,0,2-0.9,2-2v-9v-3c0-1.1-0.9-2-2-2h-2h-5h-1l-3-2H3
		z"/>
	<path class="st1" d="M2,1033.4c-1.1,0-2,0.9-2,2v6v1v6c0,1.1,0.9,2,2,2h20c1.1,0,2-0.9,2-2v-6v-1v-6c0-1.1-0.9-2-2-2H2z"/>
</g>
</svg>
